<?xml version="1.0" encoding="utf-8"?>
<!-- Generator: Adobe Illustrator 26.3.1, SVG Export Plug-In . SVG Version: 6.00 Build 0)  -->
<svg version="1.1" id="b" xmlns="http://www.w3.org/2000/svg" xmlns:xlink="http://www.w3.org/1999/xlink" x="0px" y="0px"
	 viewBox="0 0 84 70" style="enable-background:new 0 0 84 70;" xml:space="preserve">
<style type="text/css">
	.st0{fill:#FFFFFF;}
	.st1{fill:#003F73;}
	.st2{fill:#CB2C7B;}
	.st3{fill:#A274AE;}
	.st4{fill:#0084CA;}
	.st5{fill:#00A0E9;}
	.st6{fill:#41BDDB;}
</style>
<g>
	<path class="st0" d="M80.7,62.5c-0.9-0.6-1.4-1.4-1.6-1.8c0.4-0.6,0.8-1.4,1-2.5c0-0.1,0-0.1,0-0.2v-0.7c0-0.6-0.4-1-1-1h-5.7
		c-0.3,0-0.5,0.1-0.7,0.3c-0.2-0.1-0.4-0.2-0.6-0.2h-5.6c-0.6,0-1,0.4-1,1v0.4c0,0,0,0.1,0,0.1c0,0.4-0.1,0.7-0.3,0.8
		c0-0.1,0-0.1-0.1-0.2c-0.2-0.3-0.5-0.4-0.8-0.4h-1.2c-0.1,0-0.3,0-0.4,0c-0.4,0.1-0.6,0.4-0.7,0.7l0,0.1c0,0.1-0.4,1.2-1.7,1.6
		c0-0.1,0-0.1,0-0.2v-0.9c0,0,0-0.1,0-0.1c0-0.3-0.1-0.5-0.3-0.7c0-0.1,0.1-0.2,0.1-0.3v-1c0-0.6-0.4-1-1-1H53c-0.5,0-1,0.4-1,1
		c0-0.5-0.5-1-1-1h-5.6c-0.1,0-0.3,0-0.4,0.1c-0.1-0.1-0.3-0.1-0.4-0.1h-1c-0.1,0-0.1,0-0.2,0c-0.1,0-0.1,0-0.2,0h-1
		c-0.3,0-0.6,0.1-0.8,0.4c-0.2-0.2-0.4-0.2-0.7-0.2h-3.3c-0.4,0-0.7,0.2-0.9,0.5c-0.2-0.2-0.5-0.4-0.8-0.4h-6.7c-0.6,0-1,0.4-1,1
		v5.2c-0.2-0.3-0.6-0.5-0.9-0.5c-0.4,0-1.8,0-3.2-0.1c-0.7,0-0.7,0-0.7-1.3v-0.4l3.9-0.4c0.5,0,0.9-0.5,0.9-1v-0.9
		c0-0.3-0.1-0.5-0.3-0.7c-0.2-0.2-0.5-0.3-0.8-0.3l-3.7,0.3V57c0-0.6-0.4-1-1-1h-1.5c-0.6,0-1,0.4-1,1v0.1c-0.1,0-0.2-0.1-0.3-0.1
		h-0.1V57c0-0.6-0.4-1-1-1h-1.4c-0.6,0-1,0.4-1,1v0.1H15V57c0-0.6-0.4-1-1-1h-1.1c-0.6,0-1,0.4-1,1v0.1h-0.2c0,0,0,0,0,0
		c-0.1-0.5-0.5-0.8-1-0.8h-7c-0.6,0-1,0.4-1,1v1c0,0.6,0.4,1,1,1h1.6v0.3c0,1.5-0.5,2.6-1.5,3.1c-0.3,0.2-0.6,0.5-0.6,0.9v0.8
		c0,0.3,0.1,0.6,0.4,0.8c0.2,0.1,0.4,0.2,0.6,0.2c0.1,0,0.2,0,0.3,0C6,65,7.2,64.1,7.9,62.8c1.4-0.3,2.8-0.9,3.4-2.7
		c0.1,0,0.2,0.1,0.4,0.1h0.2v0.4c0,0.6,0.4,1,1,1H14c0.6,0,1-0.4,1-1v-0.4h0.9c-0.1,0.8-0.7,2-2.7,2.3c-0.5,0.1-0.9,0.5-0.9,1v1
		c0,0.3,0.1,0.6,0.3,0.7c0.2,0.2,0.4,0.3,0.7,0.3c0,0,0.1,0,0.1,0c1.5-0.2,2.9-0.7,3.8-1.4c1.2-1,1.9-2.3,2.1-3.9h0.1
		c0.1,0,0.2,0,0.3-0.1v1.6c0,1.6,1.1,3.6,4.1,3.6h3.4c0.4,0,0.7-0.2,0.9-0.6c0.1,0.4,0.5,0.6,0.9,0.6h6.7c0.4,0,0.6-0.2,0.8-0.5
		c0.2,0.3,0.5,0.5,0.8,0.5h1.3c1,0,2.9-0.2,4.5-1.6c1-0.9,1.5-2.1,1.5-3.7v-0.3h0.1c0.2,0,0.4-0.1,0.6-0.2h2.7
		c-0.6,1.4-2.1,2.7-3.4,3c-0.4,0.1-0.7,0.5-0.7,1v1c0,0.3,0.1,0.6,0.4,0.8c0.2,0.2,0.6,0.3,0.9,0.2c1.4-0.3,2.7-1.1,3.8-2.1
		c0.6,0.7,1.5,1.5,2.6,2.1c0.1,0.1,0.3,0.1,0.4,0.1c0.2,0,0.4-0.1,0.5-0.2c0,0,0,0,0,0c0.1,0.1,0.3,0.1,0.4,0.1c0,0,0,0,0.1,0
		c1.6-0.1,2.8-0.5,3.6-1.2c0.8-0.7,1.3-1.7,1.5-2.8h0.5c-0.1,0.1-0.1,0.3-0.1,0.4v1c0,0.3,0.1,0.6,0.3,0.7c0.2,0.2,0.5,0.3,0.8,0.3
		l0.2,0c0.3,0,0.5-0.1,0.8-0.1v0.7c0,0.6,0.4,1,1,1h1.3c0.6,0,1-0.4,1-1V62c0.2-0.2,0.4-0.4,0.5-0.6c0.1,0.1,0.1,0.2,0.2,0.3
		c0.2,0.2,0.6,0.3,0.9,0.2c1.5-0.4,2.5-1.2,3-2.5h1.2v0.2c0,0.6-0.2,2.7-3.3,2.9c-0.5,0-0.9,0.5-0.9,1v1c0,0.3,0.1,0.5,0.3,0.7
		c0.2,0.2,0.4,0.3,0.7,0.3c0,0,0,0,0,0c1.8-0.1,3.5-0.6,4.6-1.5c1.3-1.1,2.1-2.6,2.1-4.4v-0.2c0.1,0,0.2,0.1,0.3,0.1h2.7
		c-0.6,1.4-2.1,2.7-3.4,3c-0.4,0.1-0.7,0.5-0.7,1v1c0,0.3,0.1,0.6,0.4,0.8c0.2,0.2,0.6,0.3,0.9,0.2c1.4-0.3,2.7-1.1,3.8-2.1
		c0.6,0.7,1.5,1.5,2.6,2.1c0.1,0.1,0.3,0.1,0.4,0.1c0.2,0,0.4-0.1,0.5-0.2c0.3-0.2,0.5-0.5,0.5-0.8v-1.1C81.1,63,81,62.7,80.7,62.5z
		 M52.7,62.5c-0.9-0.6-1.4-1.3-1.6-1.8c0.2-0.3,0.4-0.7,0.6-1.2v0.8c0,0.6,0.4,1,1,1h2c-0.1,0.2-0.2,0.4-0.4,0.6
		c-0.3,0.3-0.8,0.4-1.4,0.5C52.8,62.5,52.8,62.6,52.7,62.5C52.7,62.6,52.7,62.6,52.7,62.5z M51.9,58.6c0-0.1,0.1-0.2,0.1-0.4v0.1
		c0,0.1,0,0.1,0,0.2C52,58.6,52,58.6,51.9,58.6z M40.8,61c0.2,0,0.4-0.1,0.6-0.2c-0.6,1-1.9,1.1-2.2,1.1h-1.7
		c-0.3,0-0.5,0.1-0.7,0.3v-1.4c0.2,0.2,0.4,0.3,0.6,0.3H40.8z M31.3,62.2v-2.6h2.3v2.6H31.3z"/>
	<path class="st0" d="M61.7,24.6c0.2,0.2,0.4,0.2,0.7,0.2c0.3,0,0.5-0.1,0.7-0.3l8.7-9.6c0.2-0.2,0.3-0.5,0.3-0.7s-0.1-0.5-0.3-0.7
		l-9.8-8.6c-0.4-0.4-1-0.3-1.4,0.1l-8.7,9.6c-0.2,0.2-0.3,0.5-0.3,0.7s0.1,0.5,0.3,0.7L61.7,24.6z"/>
	<path class="st0" d="M45.1,30.9c0.1,0.2,0.4,0.4,0.6,0.4c0.1,0,0.1,0,0.2,0c0.2,0,0.4-0.1,0.6-0.2l9.1-6c0.5-0.3,0.6-0.9,0.3-1.4
		l-6-9.1c-0.1-0.2-0.4-0.4-0.6-0.4c-0.3-0.1-0.5,0-0.8,0.1l-9.1,6c-0.2,0.1-0.4,0.4-0.4,0.6c-0.1,0.3,0,0.5,0.1,0.8L45.1,30.9z"/>
	<path class="st0" d="M30.9,32.8l7.9,0.6c0,0,0.1,0,0.1,0c0.2,0,0.5-0.1,0.7-0.2c0.2-0.2,0.3-0.4,0.3-0.7l0.6-7.9
		c0-0.6-0.4-1-0.9-1.1l-7.9-0.6c-0.3,0-0.5,0.1-0.7,0.2c-0.2,0.2-0.3,0.4-0.3,0.7L30,31.7C30,32.2,30.4,32.7,30.9,32.8z"/>
	<path class="st0" d="M22.5,33.9c0.2,0.4,0.5,0.6,0.9,0.6c0.1,0,0.3,0,0.4-0.1l5.1-2.5c0.5-0.2,0.7-0.8,0.5-1.3l-2.5-5.1
		c-0.2-0.5-0.8-0.7-1.3-0.5l-5.1,2.5c-0.5,0.2-0.7,0.8-0.5,1.3L22.5,33.9z"/>
	<path class="st0" d="M16.7,37.8c0.2,0.2,0.5,0.3,0.7,0.3c0.2,0,0.5-0.1,0.7-0.3l2.9-2.7c0.2-0.2,0.3-0.4,0.3-0.7
		c0-0.3-0.1-0.5-0.3-0.7l-2.7-2.9c-0.2-0.2-0.4-0.3-0.7-0.3c-0.3,0-0.5,0.1-0.7,0.3L14,33.5c-0.2,0.2-0.3,0.4-0.3,0.7
		s0.1,0.5,0.3,0.7L16.7,37.8z"/>
	<path class="st0" d="M17.7,49.8c0.7,0,1.5-0.2,2.1-0.5l1.4,0.6c0.1,0.1,0.3,0.1,0.4,0.1c0.2,0,0.4-0.1,0.5-0.2
		c0.3-0.2,0.5-0.5,0.5-0.8v0c0,0,0,0,0,0l0-4c0-2.7-2.2-4.9-4.9-4.9c-2.7,0-4.9,2.2-4.9,4.9C12.8,47.7,15,49.8,17.7,49.8z M16.9,45
		c0-0.4,0.3-0.7,0.7-0.7c0.4,0,0.7,0.3,0.7,0.7s-0.3,0.7-0.7,0.7C17.3,45.7,16.9,45.4,16.9,45z"/>
	<path class="st0" d="M41.6,40.1c-2.7,0-4.9,2.2-4.9,4.9c0,2.7,2.2,4.9,4.9,4.9c0.7,0,1.5-0.2,2.1-0.5l1.4,0.6
		c0.1,0.1,0.3,0.1,0.4,0.1c0.2,0,0.4-0.1,0.5-0.2c0.3-0.2,0.5-0.5,0.5-0.8v0c0,0,0,0,0,0l0-4C46.4,42.3,44.3,40.1,41.6,40.1z
		 M41.6,45.7c-0.4,0-0.7-0.3-0.7-0.7c0-0.4,0.3-0.7,0.7-0.7c0.4,0,0.7,0.3,0.7,0.7C42.3,45.4,42,45.7,41.6,45.7z"/>
	<path class="st0" d="M56.7,49.9h2c0.6,0,1-0.4,1-1v-4.2c0-1.2-0.3-2.1-1-2.8c-0.7-0.7-1.6-1.1-2.7-1.1h0c-0.4,0-0.8,0.1-1.2,0.2v-1
		c0-0.6-0.4-1-1-1h-2c-0.6,0-1,0.4-1,1v9c0,0.6,0.4,1,1,1h2c0.6,0,1-0.4,1-1v-2.2c0-1.1,0.1-1.4,0.1-1.4c0.1-0.2,0.1-0.4,0.3-0.5
		c0.1-0.1,0.2-0.1,0.3-0.1c0,0,0,0,0.1,0.1c0,0.1,0.1,0.4,0.1,1.5v2.5C55.7,49.4,56.1,49.9,56.7,49.9z"/>
	<path class="st0" d="M27.9,46.6l-0.1-0.2c-0.3-0.3-0.7-0.4-1.1-0.3C26.3,46.2,26,46.6,26,47v2.8c0,0.2,0.1,0.4,0.2,0.6
		c0,0.1,0.1,0.1,0.1,0.2c1.3,1.4,2.5,1.9,4.1,1.9c1.2,0,2.2-0.4,3-1.1c0.8-0.8,1.2-1.8,1.2-2.9c0-0.6-0.1-1.2-0.3-1.7
		c-0.2-0.5-0.6-1-1-1.5c-0.1-0.1-0.1-0.1-0.2-0.1c-0.2-0.2-0.5-0.4-1-0.9l-0.3-0.2c-0.3-0.3-0.5-0.5-0.7-0.6c0,0,0,0,0,0
		c0,0,0.2,0,0.2,0c0.6,0,1-0.4,1-1v-1.8c0-0.4-0.4-0.9-0.8-1c-1.4-0.4-2.8,0-3.8,0.9c-0.7,0.7-1.1,1.6-1.1,2.6c0,0.7,0.2,1.4,0.6,2
		c0.1,0.1,0.2,0.3,0.3,0.5c0,0,0.1,0.1,0.1,0.1l0.1,0.1c0.4,0.5,1.1,1.1,1.8,1.7c0.6,0.5,0.8,0.7,0.9,0.8h0
		C30,48.4,29.3,48.1,27.9,46.6z"/>
	<path class="st0" d="M68.2,40.9l-1.7-1.7c-0.2-0.2-0.4-0.3-0.7-0.3S65.2,39,65,39.2l-1.7,1.7c-0.4,0.4-0.4,1,0,1.4l1,1
		c-0.4,0.2-0.6,0.5-0.6,0.9v4.6c0,0.6,0.4,1,1,1h2c0.6,0,1-0.4,1-1v-4.6c0-0.4-0.2-0.8-0.6-0.9l1-1C68.6,41.9,68.6,41.3,68.2,40.9z"
		/>
</g>
<g id="c_00000048479253341687221510000007622162852641121170_">
	<g>
		<g>
			<g>
				<path class="st1" d="M51.1,58c-0.2,1.3-0.7,2-1.2,2.7c0,0,0.5,1.5,2.2,2.7v1.1c-1.7-0.9-2.9-2.7-2.9-2.7
					C48,63.1,46.4,64,45,64.3v-0.9c1.9-0.6,4.3-2.8,4.4-5h-4v-1.1h5.6L51.1,58L51.1,58z"/>
				<path class="st1" d="M79.1,58c-0.2,1.3-0.7,2-1.1,2.7c0,0,0.5,1.5,2.2,2.7v1.1c-1.7-0.9-2.9-2.7-2.9-2.7
					c-1.2,1.4-2.7,2.2-4.2,2.6v-0.9c1.9-0.6,4.3-2.8,4.4-5h-4v-1.1h5.7C79.1,57.3,79.1,58,79.1,58z"/>
				<path class="st1" d="M29.1,64.3v-6.8h6.7v6.8C35.8,64.3,29.1,64.3,29.1,64.3z M34.6,58.6h-4.3v4.6h4.3V58.6z"/>
				<path class="st1" d="M40.8,57.4h-3.3v1h3.3V57.4z M40.8,59h-3.3v1h3.3V59z M42.7,59.8c-0.3,3.2-3.5,3.1-3.5,3.1h-1.7v1.4h1.3
					c1.2,0,2.7-0.4,3.8-1.4c0.8-0.7,1.1-1.8,1.1-3v-0.7h-1V59.8L42.7,59.8z M43.4,58.6l-0.3-1.4h-1l0.5,1.4H43.4z M43.6,57.2
					l0.5,1.4h0.8l-0.3-1.4H43.6z"/>
				<path class="st1" d="M63,59.1l0,0.1c-0.1,0.2-0.7,2.3-3.3,2.6l-0.1,0v1l0.2,0c0.6-0.1,1.3-0.2,1.9-0.5v2h1.3v-2.8
					c0.7-0.6,1.2-1.4,1.4-2.2l0.1-0.2L63,59.1L63,59.1z"/>
				<path class="st1" d="M66.6,57.8c0,0.2,0,1.5-1.3,2v0.9c1.7-0.4,2.3-1.4,2.5-2.5h3v1.2c0,0.1,0.1,3.6-4.3,3.9v1
					c1.7-0.1,3.2-0.6,4-1.3c1.1-0.8,1.7-2.1,1.7-3.6v-2.2h-5.6L66.6,57.8L66.6,57.8z"/>
				<g>
					<rect x="53" y="57.3" class="st1" width="6.1" height="1"/>
					<path class="st1" d="M59.4,59.3h-6.8v1h3.1c0,0.4,0,1.6-0.8,2.3c-0.4,0.4-1.1,0.7-1.9,0.8v0.8c1.2-0.1,2.3-0.3,2.9-1
						c0.8-0.7,1.2-1.7,1.2-3h2.2L59.4,59.3L59.4,59.3z"/>
				</g>
			</g>
			<g>
				<path class="st1" d="M7.2,61.9c-0.5,1.4-1.6,2.2-3,2.5v-0.8c1.2-0.6,2.1-1.9,2.1-4v-0.5h1.3v0.5c0,0.4,0,0.7-0.1,1
					c1.2-0.3,1.5-1.1,1.4-2.4H3.7v-1h7v0.2C10.7,61,9.1,61.5,7.2,61.9z"/>
				<path class="st1" d="M27.3,63.2v1h-3.4c-2.2,0-3.1-1.2-3.1-2.6V57h1.5v1.4l4.8-0.3V59l-4.8,0.5v1.3c0,1.2,0,2.2,1.7,2.3
					C25.6,63.2,27.3,63.2,27.3,63.2L27.3,63.2z"/>
				<path class="st1" d="M19.5,58.1h-1.1v-1h-1.4v1H14V57h-1.1v1.1h-1.2v1h1.2v1.4H14v-1.4h2.9v0.5c0,0.1,0,3.3-3.6,3.8v1
					c1.4-0.2,2.6-0.6,3.3-1.2c1.1-0.8,1.7-2.1,1.7-3.6v-0.5h1.1C19.5,59.1,19.5,58.1,19.5,58.1z"/>
			</g>
		</g>
		<g>
			<g>
				<polygon class="st2" points="71.1,14.2 62.4,23.8 52.6,15.2 61.3,5.6 				"/>
				
					<rect x="42" y="17.3" transform="matrix(0.834 -0.5518 0.5518 0.834 -4.6756 29.9519)" class="st3" width="10.9" height="10.9"/>
				
					<rect x="31.3" y="24.2" transform="matrix(7.619701e-02 -0.9971 0.9971 7.619701e-02 4.5259 61.122)" class="st4" width="7.9" height="7.9"/>
				
					<rect x="21.9" y="26.8" transform="matrix(0.8983 -0.4395 0.4395 0.8983 -10.5211 13.8818)" class="st5" width="5.7" height="5.7"/>
				<rect x="15.5" y="32.3" transform="matrix(0.7267 -0.687 0.687 0.7267 -18.7676 21.4184)" class="st6" width="4" height="4"/>
			</g>
			<g>
				<g>
					<path class="st6" d="M21.6,49l0-3.9c0,0,0-0.1,0-0.1c0-2.1-1.7-3.9-3.9-3.9s-3.9,1.7-3.9,3.9c0,2.1,1.7,3.9,3.9,3.9
						c0.8,0,1.5-0.2,2.1-0.6L21.6,49L21.6,49z M17.7,46.7c-0.9,0-1.7-0.8-1.7-1.7c0-0.9,0.8-1.7,1.7-1.7s1.7,0.8,1.7,1.7
						C19.4,45.9,18.6,46.7,17.7,46.7z"/>
					<path class="st4" d="M45.5,49l0-3.9c0,0,0-0.1,0-0.1c0-2.1-1.7-3.9-3.9-3.9c-2.1,0-3.9,1.7-3.9,3.9c0,2.1,1.7,3.9,3.9,3.9
						c0.8,0,1.5-0.2,2.1-0.6L45.5,49L45.5,49z M41.6,46.7c-0.9,0-1.7-0.8-1.7-1.7c0-0.9,0.8-1.7,1.7-1.7s1.7,0.8,1.7,1.7
						C43.3,45.9,42.5,46.7,41.6,46.7z"/>
					<path class="st3" d="M56.1,41.7c-0.4,0-0.8,0.1-1.2,0.2c-0.3,0.1-0.7,0.4-1,0.6v-2.7h-2v9h2v-2.2c0-0.8,0-1.3,0.1-1.6
						c0.1-0.4,0.3-0.8,0.5-1c0.3-0.2,0.6-0.4,0.9-0.4c0.3,0,0.5,0.1,0.7,0.2c0.2,0.1,0.3,0.4,0.4,0.7c0.1,0.3,0.1,0.9,0.1,1.8v2.5h2
						v-4.2c0-0.9-0.2-1.6-0.7-2.1C57.5,42,56.9,41.7,56.1,41.7L56.1,41.7z"/>
					<rect x="64.7" y="44.3" class="st2" width="2" height="4.6"/>
					<path class="st5" d="M32.5,46c-0.1-0.1-0.4-0.4-1.1-0.9l-0.3-0.2c-0.8-0.7-1.2-1.1-1.4-1.3c-0.1-0.1-0.1-0.3-0.1-0.4
						c0-0.2,0.1-0.3,0.2-0.4c0.2-0.2,0.7-0.3,1.4-0.2h0.1v-1.8l-0.1,0c-0.3-0.1-0.6-0.1-0.8-0.1c-0.8,0-1.5,0.3-2,0.8
						c-0.5,0.5-0.8,1.1-0.8,1.9c0,0.5,0.2,1,0.5,1.5c0.1,0.1,0.2,0.2,0.3,0.4l0,0l0.1,0.1c0.4,0.4,1,1,1.7,1.6
						c0.6,0.5,0.9,0.8,1.1,1.1c0.2,0.2,0.2,0.4,0.2,0.7c0,0.2-0.1,0.4-0.3,0.6c-0.2,0.1-0.4,0.2-0.7,0.2c0,0-0.1,0-0.1,0
						c-0.9-0.1-1.8-0.6-3.2-2.2L27,47v2.8l0,0c1.3,1.3,2.2,1.6,3.4,1.6c0.9,0,1.7-0.3,2.3-0.9c0.6-0.6,0.9-1.3,0.9-2.2
						c0-0.4-0.1-0.9-0.2-1.2C33.2,46.8,32.9,46.4,32.5,46L32.5,46z"/>
				</g>
				
					<rect x="64.5" y="40.4" transform="matrix(0.7067 -0.7075 0.7075 0.7067 -10.1566 58.7132)" class="st2" width="2.5" height="2.5"/>
			</g>
		</g>
	</g>
</g>
</svg>
